<?xml version="1.0" encoding="UTF-8"?>
<svg width="1200pt" height="1200pt" version="1.1" viewBox="0 0 1200 1200" xmlns="http://www.w3.org/2000/svg">
 <path d="m612 1089v-393.64c28.195-2.8633 53.777-15.914 76.207-38.938 127.17-130.54 117.77-548.09 117.32-565.8h-0.058594c-0.625-23.164-69.715-34.918-205.46-34.918-135.76 0-204.84 11.754-205.46 34.918h-0.054687c-0.46094 17.707-9.8594 435.26 117.32 565.8 22.426 23.023 48.012 36.074 76.203 38.938v393.64c-162.46 1.0742-162.55 23.852-162.55 31.461 0 7.793 0 31.512 174.55 31.512 174.56 0 174.56-23.719 174.56-31.512 0-7.6094-0.09375-30.387-162.56-31.461zm144.43-813.52c-2.6094 0.48047-5.4336 0.96094-8.4688 1.4336-0.85547 0.13281-1.6445 0.26953-2.5352 0.40234-3.832 0.57031-7.9961 1.125-12.43 1.6641-1.1367 0.13672-2.3555 0.26953-3.5273 0.40625-3.7422 0.43359-7.6836 0.85156-11.809 1.2578-1.3047 0.12891-2.5742 0.25781-3.918 0.38281-5.2383 0.48828-10.738 0.94922-16.531 1.3789-1.2031 0.089844-2.4883 0.16797-3.7148 0.25391-4.9375 0.34766-10.07 0.66797-15.375 0.96484-1.707 0.09375-3.4023 0.19531-5.1484 0.28516-6.5703 0.33984-13.348 0.64453-20.434 0.89453-0.87109 0.03125-1.793 0.050781-2.6719 0.078124-6.375 0.21484-12.98 0.37891-19.742 0.51172-2.0195 0.039063-4.0469 0.078125-6.0977 0.10938-7.8008 0.12109-15.758 0.20703-24.031 0.20703s-16.23-0.085938-24.027-0.20313c-2.0547-0.03125-4.0859-0.070312-6.1094-0.10937-6.75-0.13281-13.344-0.29688-19.707-0.51172-0.89062-0.03125-1.8281-0.050781-2.7109-0.082031-7.0742-0.25-13.836-0.55859-20.395-0.89453-1.7695-0.089844-3.4883-0.19141-5.2188-0.28906-5.2656-0.29688-10.359-0.61328-15.258-0.95703-1.2617-0.089843-2.582-0.17187-3.8203-0.26172-5.7695-0.42578-11.246-0.89062-16.461-1.375-1.3828-0.12891-2.6836-0.26172-4.0234-0.39453-4.0742-0.40234-7.9727-0.81641-11.672-1.2422-1.207-0.14062-2.4609-0.27734-3.6289-0.41797-4.4102-0.53906-8.5547-1.0898-12.367-1.6562-0.92187-0.13672-1.7383-0.27734-2.625-0.41406-2.9922-0.46484-5.7852-0.9375-8.3672-1.4141-0.55469-0.10156-1.1133-0.20703-1.6523-0.30859 28.414-5.4375 84.031-10.508 158.04-10.508 74.02 0 129.63 5.0703 158.05 10.508-0.52344 0.10156-1.0664 0.19922-1.6133 0.30078zm20.551-20.387c-10.18-3.0273-24.164-5.5-42.852-7.7461-35.906-4.3047-83.543-6.6758-134.13-6.6758s-98.223 2.3711-134.13 6.6797c-18.684 2.2422-32.664 4.7148-42.844 7.7422-4.3125-63.664-4.8516-117.19-4.7656-144.46 30.793 10.297 91.426 15.527 181.74 15.527 90.309 0 150.95-5.2305 181.73-15.527 0.09375 27.273-0.44141 80.801-4.75 144.46zm-176.98-175.39c78.117 0 136.31 5.4648 165.02 11.227-28.711 5.7539-86.906 11.223-165.02 11.223s-136.32-5.4688-165.02-11.223c28.703-5.7539 86.914-11.227 165.02-11.227zm-173.73 216.48c9.8555 2.6211 22.812 4.8242 39.609 6.8398 35.902 4.3086 83.543 6.6797 134.12 6.6797 50.59 0 98.215-2.3711 134.13-6.6797 16.801-2.0156 29.758-4.2227 39.617-6.8438-11.371 126.82-38.535 277.59-102.73 343.49-21.176 21.727-44.402 32.297-71.016 32.297-26.609 0-49.832-10.559-71.012-32.297-64.18-65.871-91.344-216.65-102.72-343.48zm173.73 831.78c-56.695 0-101.09-3.4688-127.44-7.5117 25.863-3.9688 69.168-7.3633 124.35-7.4883h6.1836c55.184 0.125 98.488 3.5195 124.35 7.4883-26.359 4.043-70.75 7.5117-127.45 7.5117z"/>
</svg>
